<?xml version="1.0" encoding="UTF-8"?>
<svg width="126px" height="56px" viewBox="0 0 126 56" version="1.1" xmlns="http://www.w3.org/2000/svg" xmlns:xlink="http://www.w3.org/1999/xlink">
    <!-- Generator: Sketch 61.2 (89653) - https://sketch.com -->
    <title>logo</title>
    <desc>Created with Sketch.</desc>
    <defs>
        <path d="M1.62552756,19.2665455 C6.54633071,4.75915152 22.3228346,-3.0210303 36.8628661,1.89 C38.4939213,2.44066667 40.0352598,3.13472727 41.4881575,3.94121212 C38.3582835,2.95060606 34.9792441,2.56624242 31.4964567,2.926 C25.6189606,3.52969697 20.5552913,6.63218182 17.2566142,11.0829091 C14.335937,15.0207273 12.793748,20.0225455 13.277622,25.2797576 C13.7172756,30.0575758 16.1485512,34.1447273 19.658126,36.7890303 C20.3720315,37.3265455 20.9426457,37.688 21.3652913,37.9026667 C22.2169606,38.4749697 23.1557953,38.9471515 24.1749921,39.2903636 C29.8301102,41.200303 35.9240315,38.5797576 38.5015748,33.3840606 L38.5015748,33.3840606 L53.6168976,38.7863636 C48.0659528,52.1661212 32.9880472,59.136 19.040315,54.4260606 C4.50113386,49.5150303 -3.29612598,33.7743636 1.62552756,19.2665455 Z" id="path-1"></path>
        <linearGradient x1="32.0639344%" y1="8.35051481%" x2="66.4202186%" y2="8.35051481%" id="linearGradient-3">
            <stop stop-color="#548692" offset="0%"></stop>
            <stop stop-color="#C7CBC9" offset="100%"></stop>
        </linearGradient>
    </defs>
    <g id="Page-1" stroke="none" stroke-width="1" fill="none" fill-rule="evenodd">
        <g id="Tipo-progetti" transform="translate(-45.000000, -15.000000)">
            <g id="logo" transform="translate(45.000000, 15.000000)">
                <path d="M123.75322,43.9689146 L123.75322,40.3327582 L126,40.3327582 L126,40.679739 L124.139601,40.679739 L124.139601,41.9618033 L125.725686,41.9618033 L125.725686,42.3092041 L124.139601,42.3092041 L124.139601,43.6215138 L126,43.6215138 L126,43.9689146 L123.75322,43.9689146 Z M122.341089,43.9689146 L120.41922,41.0527642 L120.41922,43.9689146 L120.032839,43.9689146 L120.032839,40.3327582 L120.39873,40.3327582 L122.320599,43.2384067 L122.320599,40.3327582 L122.70698,40.3327582 L122.70698,43.9689146 L122.341089,43.9689146 Z M118.483133,40.9099392 C118.325486,40.7465306 118.096752,40.6494937 117.857982,40.6494937 C117.619212,40.6494937 117.390478,40.7465306 117.232831,40.9099392 C117.004097,41.1447603 116.978171,41.3900833 116.978171,42.1508364 C116.978171,42.9120096 117.004097,43.1569125 117.232831,43.3921536 C117.390478,43.5555622 117.619212,43.6521791 117.857982,43.6521791 C118.096752,43.6521791 118.325486,43.5555622 118.483133,43.3921536 C118.712285,43.1569125 118.737375,42.9120096 118.737375,42.1508364 C118.737375,41.3900833 118.712285,41.1447603 118.483133,40.9099392 Z M118.783373,43.6215138 C118.539585,43.8668367 118.218855,44 117.857982,44 C117.497109,44 117.176797,43.8668367 116.933009,43.6215138 C116.59179,43.2795739 116.59179,42.9220914 116.59179,42.1508364 C116.59179,41.3795814 116.59179,41.0225189 116.933009,40.679739 C117.176797,40.4348361 117.497109,40.3020929 117.857982,40.3020929 C118.218855,40.3020929 118.539585,40.4348361 118.783373,40.679739 C119.123756,41.0225189 119.123756,41.3795814 119.123756,42.1508364 C119.123756,42.9220914 119.123756,43.2795739 118.783373,43.6215138 Z M115.296326,43.9689146 L115.682707,43.9689146 L115.682707,40.3327582 L115.296326,40.3327582 L115.296326,43.9689146 Z M113.238136,44 C112.69369,44 112.338253,43.8617958 111.997452,43.519856 L112.26173,43.2539494 C112.56197,43.5555622 112.841719,43.6521791 113.247754,43.6521791 C113.777146,43.6521791 114.102057,43.4022354 114.102057,42.9783812 C114.102057,42.7893481 114.046442,42.6259395 113.929357,42.5238617 C113.81269,42.4217838 113.721113,42.3911184 113.456416,42.3499512 L113.03491,42.2839997 C112.749724,42.2377916 112.526426,42.1462156 112.368779,42.0075913 C112.185624,41.8446028 112.094465,41.6198635 112.094465,41.3287525 C112.094465,40.7108244 112.536462,40.3020929 113.25319,40.3020929 C113.716095,40.3020929 114.020516,40.4197134 114.330792,40.7003226 L114.081986,40.9506864 C113.857851,40.7465306 113.619081,40.6394119 113.238136,40.6394119 C112.75516,40.6394119 112.475828,40.9099392 112.475828,41.3132098 C112.475828,41.4921611 112.526426,41.6354062 112.638075,41.7320231 C112.749724,41.8294802 112.937897,41.9008927 113.126069,41.9311379 L113.522904,41.9924687 C113.863287,42.0432976 114.03097,42.1151301 114.183599,42.2482935 C114.381807,42.4163229 114.488438,42.6666867 114.488438,42.9682995 C114.488438,43.6063911 113.990408,44 113.238136,44 Z M110.046311,44 C109.314111,44 108.785555,43.4942315 108.785555,42.7687645 L108.785555,40.3327582 L109.171936,40.3327582 L109.171936,42.7385192 C109.171936,43.2896557 109.517337,43.6521791 110.046311,43.6521791 C110.575285,43.6521791 110.926123,43.2896557 110.926123,42.7385192 L110.926123,40.3327582 L111.312086,40.3327582 L111.312086,42.7687645 C111.312086,43.4942315 110.778094,44 110.046311,44 Z M106.087579,43.9689146 L106.087579,40.3327582 L106.47396,40.3327582 L106.47396,43.6215138 L108.324741,43.6215138 L108.324741,43.9689146 L106.087579,43.9689146 Z M103.978791,44 C103.623354,44 103.297607,43.8668367 103.053819,43.6215138 C102.713017,43.2795739 102.713017,42.9220914 102.713017,42.1508364 C102.713017,41.3795814 102.713017,41.0225189 103.053819,40.679739 C103.297607,40.4348361 103.623354,40.3020929 103.978791,40.3020929 C104.629868,40.3020929 105.112427,40.7003226 105.23453,41.3850424 L104.838113,41.3850424 C104.741936,40.9406046 104.431242,40.6494937 103.978791,40.6494937 C103.740021,40.6494937 103.511287,40.7414898 103.35364,40.9048984 C103.124906,41.1397195 103.099398,41.3900833 103.099398,42.1508364 C103.099398,42.9120096 103.124906,43.1619533 103.35364,43.3971945 C103.511287,43.5606031 103.740021,43.6521791 103.978791,43.6521791 C104.431242,43.6521791 104.751972,43.3614883 104.848149,42.9170505 L105.23453,42.9170505 C105.117863,43.6009302 104.624432,44 103.978791,44 Z M101.438044,43.9689146 L99.5165925,41.0527642 L99.5165925,43.9689146 L99.1302115,43.9689146 L99.1302115,40.3327582 L99.4965208,40.3327582 L101.417554,43.2384067 L101.417554,40.3327582 L101.803935,40.3327582 L101.803935,43.9689146 L101.438044,43.9689146 Z M97.6967547,43.9689146 L98.0831357,43.9689146 L98.0831357,40.3327582 L97.6967547,40.3327582 L97.6967547,43.9689146 Z M96.2842059,41.1653439 L96.2842059,40.3327582 L96.7266205,40.3327582 L96.7266205,40.7620734 L96.2842059,41.1653439 Z M94.2113805,43.9689146 L94.2113805,40.3327582 L94.5977615,40.3327582 L94.5977615,43.6215138 L96.4485433,43.6215138 L96.4485433,43.9689146 L94.2113805,43.9689146 Z M89.8967926,43.9689146 L89.8967926,40.3327582 L92.1435731,40.3327582 L92.1435731,40.679739 L90.2827554,40.679739 L90.2827554,41.9618033 L91.8688411,41.9618033 L91.8688411,42.3092041 L90.2827554,42.3092041 L90.2827554,43.6215138 L92.1435731,43.6215138 L92.1435731,43.9689146 L89.8967926,43.9689146 Z M87.91429,40.679739 L86.9487556,40.679739 L86.9487556,42.0130523 L87.91429,42.0130523 C88.3366329,42.0130523 88.6364545,41.7937739 88.6364545,41.3493361 C88.6364545,40.9048984 88.3366329,40.679739 87.91429,40.679739 Z M88.6418906,43.9689146 L87.8181129,42.3554122 L86.9487556,42.3554122 L86.9487556,43.9689146 L86.5623746,43.9689146 L86.5623746,40.3327582 L87.9502519,40.3327582 C88.5804209,40.3327582 89.0228355,40.7154452 89.0228355,41.3438752 C89.0228355,41.8752682 88.702524,42.2222489 88.2350197,42.3197059 L89.0943411,43.9689146 L88.6418906,43.9689146 Z M84.494149,40.8893556 L83.8133825,42.8099317 L85.1652978,42.8099317 L84.494149,40.8893556 Z M85.5671508,43.9689146 L85.2773651,43.1468307 L83.6958792,43.1468307 L83.4065116,43.9689146 L82.9946227,43.9689146 L84.3264663,40.3327582 L84.652214,40.3327582 L85.9786215,43.9689146 L85.5671508,43.9689146 Z M82.0395424,40.679739 L82.0395424,43.9689146 L81.6531614,43.9689146 L81.6531614,40.679739 L80.6060856,40.679739 L80.6060856,40.3327582 L83.0870363,40.3327582 L83.0870363,40.679739 L82.0395424,40.679739 Z M79.2545883,40.679739 L79.2545883,43.9689146 L78.8686255,43.9689146 L78.8686255,40.679739 L77.8211315,40.679739 L77.8211315,40.3327582 L80.3020823,40.3327582 L80.3020823,40.679739 L79.2545883,40.679739 Z M75.1428086,43.9689146 L75.1428086,40.3327582 L77.3895891,40.3327582 L77.3895891,40.679739 L75.5291896,40.679739 L75.5291896,41.9618033 L77.1152753,41.9618033 L77.1152753,42.3092041 L75.5291896,42.3092041 L75.5291896,43.6215138 L77.3895891,43.6215138 L77.3895891,43.9689146 L75.1428086,43.9689146 Z M73.9339044,43.5811867 C73.6792442,43.8567549 73.3388609,44 72.9675337,44 C72.6120966,44 72.2867672,43.8668367 72.042561,43.6215138 C71.7017595,43.2795739 71.7017595,42.9220914 71.7017595,42.1508364 C71.7017595,41.3795814 71.7017595,41.0225189 72.042561,40.679739 C72.2867672,40.4348361 72.6070787,40.3020929 72.9675337,40.3020929 C73.6595906,40.3020929 74.1270949,40.7515715 74.233726,41.3900833 L73.847345,41.3900833 C73.7457318,40.9305228 73.4199842,40.6494937 72.9675337,40.6494937 C72.7291818,40.6494937 72.5000294,40.7465306 72.3423826,40.9099392 C72.1136484,41.1447603 72.0881406,41.3900833 72.0881406,42.1508364 C72.0881406,42.9120096 72.1136484,43.1619533 72.3423826,43.3971945 C72.5000294,43.5606031 72.7291818,43.6521791 72.9675337,43.6521791 C73.2322298,43.6521791 73.4860537,43.5454805 73.6541545,43.3409047 C73.8013473,43.1619533 73.8573809,42.9632586 73.8573809,42.6822294 L73.8573809,42.4062411 L72.9675337,42.4062411 L72.9675337,42.0638812 L74.2437619,42.0638812 L74.2437619,42.6410622 C74.2437619,43.0598755 74.1576207,43.3409047 73.9339044,43.5811867 Z M70.2896289,40.9099392 C70.1319821,40.7465306 69.9032479,40.6494937 69.6640597,40.6494937 C69.4257078,40.6494937 69.1965554,40.7465306 69.0389086,40.9099392 C68.8101744,41.1447603 68.7846665,41.3900833 68.7846665,42.1508364 C68.7846665,42.9120096 68.8101744,43.1569125 69.0389086,43.3921536 C69.1965554,43.5555622 69.4257078,43.6521791 69.6640597,43.6521791 C69.9032479,43.6521791 70.1319821,43.5555622 70.2896289,43.3921536 C70.5183632,43.1569125 70.5434528,42.9120096 70.5434528,42.1508364 C70.5434528,41.3900833 70.5183632,41.1447603 70.2896289,40.9099392 Z M70.5898687,43.6215138 C70.3456626,43.8668367 70.0249329,44 69.6640597,44 C69.3036047,44 68.9832932,43.8668367 68.739087,43.6215138 C68.3982855,43.2795739 68.3982855,42.9220914 68.3982855,42.1508364 C68.3982855,41.3795814 68.3982855,41.0225189 68.739087,40.679739 C68.9832932,40.4348361 69.3036047,40.3020929 69.6640597,40.3020929 C70.0249329,40.3020929 70.3456626,40.4348361 70.5898687,40.679739 C70.9298338,41.0225189 70.9298338,41.3795814 70.9298338,42.1508364 C70.9298338,42.9220914 70.9298338,43.2795739 70.5898687,43.6215138 Z M66.5537762,40.679739 L65.5878237,40.679739 L65.5878237,42.0130523 L66.5537762,42.0130523 C66.9761191,42.0130523 67.2759407,41.7937739 67.2759407,41.3493361 C67.2759407,40.9048984 66.9761191,40.679739 66.5537762,40.679739 Z M67.2809586,43.9689146 L66.4571809,42.3554122 L65.5878237,42.3554122 L65.5878237,43.9689146 L65.2014427,43.9689146 L65.2014427,40.3327582 L66.5893199,40.3327582 C67.2199071,40.3327582 67.6623217,40.7154452 67.6623217,41.3438752 C67.6623217,41.8752682 67.3420102,42.2222489 66.8740877,42.3197059 L67.7334091,43.9689146 L67.2809586,43.9689146 Z M63.3113537,40.679739 L62.386381,40.679739 L62.386381,42.125632 L63.3113537,42.125632 C63.7638042,42.125632 64.0790978,41.8803091 64.0790978,41.400165 C64.0790978,40.9204411 63.7638042,40.679739 63.3113537,40.679739 Z M63.3468974,42.4726127 L62.386381,42.4726127 L62.386381,43.9689146 L62,43.9689146 L62,40.3327582 L63.3468974,40.3327582 C64.0075922,40.3327582 64.4654788,40.7465306 64.4654788,41.400165 C64.4654788,42.0542195 64.0075922,42.4726127 63.3468974,42.4726127 Z M117.329008,34.1891831 C120.425074,34.1891831 123.07538,31.6851249 123.07538,28.3102543 C123.07538,25.1466807 120.634573,22.3796564 117.329008,22.3796564 C114.179835,22.3796564 111.451333,24.6728377 111.451333,28.337139 C111.451333,31.5528017 113.81269,34.1891831 117.329008,34.1891831 Z M124.807822,35.5069537 L122.970003,35.5069537 L122.970003,32.9764309 L122.91857,32.9764309 C121.343774,35.348586 118.824353,35.8493136 117.329008,35.8493136 C112.814957,35.8493136 109.614351,32.3971495 109.614351,28.2581652 C109.614351,24.4090316 112.632221,20.7182657 117.329008,20.7182657 C118.877041,20.7182657 121.396463,21.2198335 122.91857,23.6184532 L122.970003,23.6184532 L122.970003,20.6258495 L124.807822,20.6258495 L124.807822,35.5069537 Z M100.97723,22.3796564 C97.6708287,22.3796564 95.2308577,25.1466807 95.2308577,28.3102543 C95.2308577,31.6851249 97.8811638,34.1891831 100.97723,34.1891831 C104.493966,34.1891831 106.854905,31.5528017 106.854905,28.337139 C106.854905,24.6728377 104.126402,22.3796564 100.97723,22.3796564 Z M93.4988337,16 L95.335398,16 L95.335398,23.6184532 L95.3885045,23.6184532 C97.0147337,21.2727627 99.4287786,20.7182657 100.97723,20.7182657 C105.674853,20.7182657 108.691887,24.4090316 108.691887,28.2581652 C108.691887,32.3971495 105.490026,35.8493136 100.97723,35.8493136 C99.481467,35.8493136 96.9892258,35.3221214 95.3885045,32.9764309 L95.335398,32.9764309 L95.335398,35.5069537 L93.4988337,35.5069537 L93.4988337,16 Z M87.9640512,35.5069537 L89.8010336,35.5069537 L89.8010336,20.6258495 L87.9640512,20.6258495 L87.9640512,35.5069537 Z M79.3390569,21.0879304 L81.175203,21.0879304 L81.175203,23.1706549 L81.2278914,23.1706549 C82.0939033,21.1412797 83.7205507,20.8245443 85.2685837,20.7182657 L85.2685837,22.6695072 C83.9831559,22.7749456 82.8808828,23.2496287 82.1720995,24.0927162 C81.5427668,24.8832946 81.175203,25.9116345 81.175203,27.0718776 L81.175203,35.5069537 L79.3390569,35.5069537 L79.3390569,21.0879304 Z M77.4782393,31.2625309 C76.5612116,33.0558248 74.6451967,35.8493136 70.3414809,35.8493136 C65.8546106,35.8493136 62.6276601,32.3433801 62.6276601,28.3102543 C62.6276601,24.1456455 66.0649457,20.7182657 70.3414809,20.7182657 C72.8604844,20.7182657 76.0882712,21.9843673 77.4782393,25.4373715 L75.4585204,25.4373715 C74.3043953,23.2496287 72.2048075,22.3796564 70.3941693,22.3796564 C67.5866345,22.3796564 64.4642243,24.4880054 64.4642243,28.2581652 C64.4642243,31.5002926 66.9564655,34.1891831 70.3941693,34.1891831 C73.3861131,34.1891831 74.8810397,32.3698447 75.4585204,31.2625309 L77.4782393,31.2625309 L77.4782393,31.2625309 Z" id="Fill-1" fill="#414241"></path>
                <g id="Group-4">
                    <mask id="mask-2" fill="white">
                        <use xlink:href="#path-1"></use>
                    </mask>
                    <g id="Clip-3"></g>
                    <polygon id="Fill-2" fill="url(#linearGradient-3)" mask="url(#mask-2)" points="-49.7480315 332.606061 105.874016 332.606061 105.874016 0.41830303 -49.7480315 0.41830303"></polygon>
                </g>
                <path d="M31.4948062,3.40164013 C25.8657256,3.97247912 21.0370692,6.89234581 17.8841677,11.0831291 C15.0946674,14.7927406 13.622229,19.4929009 14.0836501,24.4544852 C14.3486034,27.2905783 15.3788822,29.8644055 16.9510527,32 C15.8527163,29.4577458 15.6605289,26.5252499 16.6325951,23.7030489 C18.7321039,17.6014705 25.4638012,14.3300916 31.6673041,16.3949627 C35.3586729,17.624203 38.0313199,20.4661898 39.1480617,23.8520733 L54,17.6380951 C52.3353741,13.3589076 49.6015183,9.50321854 45.9961844,6.48484423 C40.1817648,2.1618755 36.7489287,2.86616284 31.4948062,3.40164013" id="Fill-5" fill="#6BABC6"></path>
            </g>
        </g>
    </g>
</svg>